<svg width="28" height="29" viewBox="0 0 28 29" fill="none" xmlns="http://www.w3.org/2000/svg">
<path d="M23.1261 4.89536C20.5821 2.34536 17.1943 0.942856 13.5939 0.942856C6.1625 0.942856 0.115357 6.99 0.115357 14.4214C0.115357 16.7954 0.734643 19.1146 1.9125 21.1607L0 28.1429L7.14607 26.2668C9.11321 27.3414 11.3293 27.9061 13.5879 27.9061H13.5939C21.0193 27.9061 27.2 21.8589 27.2 14.4275C27.2 10.8271 25.67 7.44536 23.1261 4.89536ZM13.5939 25.6354C11.5782 25.6354 9.605 25.095 7.88679 24.075L7.48 23.8321L3.24214 24.9432L4.37143 20.8086L4.10429 20.3836C2.98107 18.5986 2.39214 16.5404 2.39214 14.4214C2.39214 8.24678 7.41929 3.21964 13.6 3.21964C16.5932 3.21964 19.4043 4.38536 21.5171 6.50428C23.63 8.62321 24.9293 11.4343 24.9232 14.4275C24.9232 20.6082 19.7686 25.6354 13.5939 25.6354ZM19.7382 17.2446C19.4043 17.0746 17.7468 16.2611 17.4371 16.1518C17.1275 16.0364 16.9029 15.9818 16.6782 16.3218C16.4536 16.6618 15.81 17.4146 15.6096 17.6454C15.4154 17.87 15.215 17.9004 14.8811 17.7304C12.9018 16.7407 11.6025 15.9636 10.2971 13.7232C9.95107 13.1282 10.6432 13.1707 11.2868 11.8836C11.3961 11.6589 11.3414 11.4646 11.2564 11.2946C11.1714 11.1246 10.4975 9.46714 10.2182 8.79321C9.945 8.1375 9.66571 8.22857 9.45929 8.21643C9.265 8.20428 9.04036 8.20428 8.81571 8.20428C8.59107 8.20428 8.22679 8.28928 7.91714 8.62321C7.6075 8.96321 6.73929 9.77678 6.73929 11.4343C6.73929 13.0918 7.9475 14.6946 8.11143 14.9193C8.28143 15.1439 10.4854 18.5439 13.8671 20.0071C16.0043 20.93 16.8421 21.0089 17.9107 20.8511C18.5604 20.7539 19.9021 20.0375 20.1814 19.2482C20.4607 18.4589 20.4607 17.785 20.3757 17.6454C20.2968 17.4936 20.0721 17.4086 19.7382 17.2446Z" fill="white"/>
</svg>
