<svg width="25" height="25" viewBox="0 0 25 25" fill="none" xmlns="http://www.w3.org/2000/svg">
<path d="M20.5754 4.24514C18.3121 1.97639 15.2979 0.728577 12.0946 0.728577C5.48281 0.728577 0.102634 6.10875 0.102634 12.7205C0.102634 14.8326 0.653616 16.8961 1.70156 18.7165L0 24.9286L6.3579 23.2594C8.10808 24.2155 10.0797 24.7179 12.0892 24.7179H12.0946C18.701 24.7179 24.2 19.3377 24.2 12.7259C24.2 9.52268 22.8388 6.51389 20.5754 4.24514ZM12.0946 22.6976C10.3012 22.6976 8.54563 22.2169 7.01692 21.3094L6.655 21.0933L2.88455 22.0818L3.88929 18.4032L3.65161 18.0251C2.65228 16.437 2.1283 14.6058 2.1283 12.7205C2.1283 7.22692 6.60098 2.75425 12.1 2.75425C14.7631 2.75425 17.2641 3.79139 19.1439 5.67661C21.0238 7.56183 22.1797 10.0629 22.1743 12.7259C22.1743 18.225 17.5882 22.6976 12.0946 22.6976ZM17.5612 15.2324C17.2641 15.0811 15.7894 14.3573 15.5139 14.26C15.2384 14.1574 15.0386 14.1088 14.8387 14.4113C14.6388 14.7138 14.0663 15.3836 13.888 15.5889C13.7151 15.7888 13.5369 15.8158 13.2398 15.6645C11.4788 14.784 10.3228 14.0926 9.16143 12.0993C8.85353 11.57 9.46933 11.6078 10.0419 10.4626C10.1392 10.2627 10.0905 10.0899 10.0149 9.93862C9.93929 9.78737 9.33969 8.31268 9.09121 7.71308C8.84813 7.12969 8.59964 7.21072 8.41598 7.19991C8.24313 7.18911 8.04326 7.18911 7.84339 7.18911C7.64353 7.18911 7.31942 7.26474 7.04393 7.56183C6.76844 7.86433 5.99598 8.58817 5.99598 10.0629C5.99598 11.5375 7.07094 12.9636 7.21679 13.1635C7.36804 13.3634 9.32888 16.3884 12.3377 17.6902C14.2391 18.5113 14.9846 18.5815 15.9353 18.441C16.5133 18.3546 17.7071 17.7172 17.9555 17.015C18.204 16.3127 18.204 15.7131 18.1284 15.5889C18.0582 15.4538 17.8583 15.3782 17.5612 15.2324Z" fill="white"/>
</svg>
